<svg width="65" height="65" viewBox="0 0 65 65" fill="none" xmlns="http://www.w3.org/2000/svg">
<path d="M0 0H65V65H0V0ZM59.6781 49.5016C59.2028 46.5278 57.265 44.0416 51.543 41.7158C49.5544 40.7855 47.3322 40.1294 46.6761 38.6263C46.4323 37.7366 46.3897 37.2511 46.5481 36.7209C46.9605 34.9639 49.0242 34.4459 50.6533 34.9334C51.7116 35.2605 52.6845 36.0648 53.298 37.3669C56.1011 35.5367 56.1011 35.5367 58.0491 34.32C57.3198 33.1886 56.9603 32.6909 56.4627 32.2156C54.7584 30.3002 52.4855 29.3272 48.7927 29.4125L46.8772 29.6563C45.047 30.1011 43.3022 31.0741 42.2439 32.3761C39.1645 35.8678 40.0542 41.9616 43.7877 44.4905C47.4805 47.2509 52.8856 47.8542 53.5844 50.4583C54.2303 53.6331 51.2261 54.6488 48.2523 54.277C46.0627 53.7895 44.8459 52.6906 43.5013 50.6594L38.5491 53.5052C39.1097 54.8072 39.7658 55.3678 40.7387 56.5094C45.4472 61.2605 57.2325 61.0167 59.347 53.7895C59.4202 53.5458 59.993 51.8741 59.5481 49.3248L59.6781 49.5016ZM35.3458 29.8756H29.2622C29.2622 35.1223 29.2297 40.3386 29.2297 45.5975C29.2297 48.9308 29.3983 51.998 28.86 52.9405C27.9602 54.8031 25.6648 54.5695 24.6167 54.2425C23.5483 53.7144 22.9978 52.9831 22.3742 51.9248C22.1934 51.6384 22.0675 51.3967 22.0248 51.3967L17.0848 54.4436C17.9095 56.1478 19.1161 57.6184 20.672 58.5487C22.9897 59.9341 26.0995 60.3789 29.3577 59.6497C31.4742 59.0362 33.3044 57.7769 34.255 55.8309C35.6403 53.3122 35.3438 50.2247 35.3336 46.7634C35.3661 41.1978 35.3336 35.6342 35.3336 30.0259L35.3458 29.8756Z" fill="black"/>
</svg>
