<svg width="409" height="203" viewBox="0 0 409 203" fill="none" xmlns="http://www.w3.org/2000/svg">
<path d="M6 197V6H403V197H6Z" fill="white" stroke="#404040" stroke-width="6"/>
<path d="M409 1H0V98H409V1Z" fill="#404040"/>
<path d="M93.2727 26.4545H95.2727V24.4545H93.2727V26.4545ZM93.2727 73V75H95.2727V73H93.2727ZM82.7273 73L81.0794 74.1333L81.6754 75H82.7273V73ZM65.9091 48.5455L67.557 47.4121L66.961 46.5455H65.9091V48.5455ZM65.6364 48.5455V46.5455H63.6364V48.5455H65.6364ZM65.6364 73V75H67.6364V73H65.6364ZM53 73H51V75H53V73ZM53 26.4545V24.4545H51V26.4545H53ZM63.7273 26.4545L65.3818 25.3309L64.7867 24.4545H63.7273V26.4545ZM80.2727 50.8182L78.6182 51.9418L79.2133 52.8182H80.2727V50.8182ZM80.6364 50.8182V52.8182H82.6364V50.8182H80.6364ZM80.6364 26.4545V24.4545H78.6364V26.4545H80.6364ZM91.2727 26.4545V73H95.2727V26.4545H91.2727ZM93.2727 71H82.7273V75H93.2727V71ZM84.3752 71.8667L67.557 47.4121L64.2612 49.6788L81.0794 74.1333L84.3752 71.8667ZM65.9091 46.5455H65.6364V50.5455H65.9091V46.5455ZM63.6364 48.5455V73H67.6364V48.5455H63.6364ZM65.6364 71H53V75H65.6364V71ZM55 73V26.4545H51V73H55ZM53 28.4545H63.7273V24.4545H53V28.4545ZM62.0727 27.5782L78.6182 51.9418L81.9273 49.6946L65.3818 25.3309L62.0727 27.5782ZM80.2727 52.8182H80.6364V48.8182H80.2727V52.8182ZM82.6364 50.8182V26.4545H78.6364V50.8182H82.6364ZM80.6364 28.4545H93.2727V24.4545H80.6364V28.4545ZM130.766 26.4545H132.766V24.4545H130.766V26.4545ZM130.766 73V75H132.766V73H130.766ZM118.13 73H116.13V75H118.13V73ZM118.13 26.4545V24.4545H116.13V26.4545H118.13ZM128.766 26.4545V73H132.766V26.4545H128.766ZM130.766 71H118.13V75H130.766V71ZM120.13 73V26.4545H116.13V73H120.13ZM118.13 28.4545H130.766V24.4545H118.13V28.4545ZM155.635 73H153.635V75H155.635V73ZM155.635 26.4545V24.4545H153.635V26.4545H155.635ZM168.271 26.4545H170.271V24.4545H168.271V26.4545ZM168.271 45.2727H166.271V47.2727H168.271V45.2727ZM168.908 45.2727V47.2727H169.913L170.512 46.4665L168.908 45.2727ZM182.908 26.4545V24.4545H181.903L181.303 25.2608L182.908 26.4545ZM197.635 26.4545L199.228 27.6635L201.663 24.4545H197.635V26.4545ZM181.908 47.1818L180.314 45.9729L179.482 47.0704L180.21 48.2397L181.908 47.1818ZM197.999 73V75H201.602L199.696 71.9422L197.999 73ZM182.908 73L181.192 74.0277L181.774 75H182.908V73ZM172.453 55.5455L174.169 54.5178L172.657 51.9929L170.866 54.3286L172.453 55.5455ZM168.271 61L166.684 59.7831L166.271 60.3216V61H168.271ZM168.271 73V75H170.271V73H168.271ZM157.635 73V26.4545H153.635V73H157.635ZM155.635 28.4545H168.271V24.4545H155.635V28.4545ZM166.271 26.4545V45.2727H170.271V26.4545H166.271ZM168.271 47.2727H168.908V43.2727H168.271V47.2727ZM170.512 46.4665L184.512 27.6483L181.303 25.2608L167.303 44.0789L170.512 46.4665ZM182.908 28.4545H197.635V24.4545H182.908V28.4545ZM196.042 25.2456L180.314 45.9729L183.501 48.3907L199.228 27.6635L196.042 25.2456ZM180.21 48.2397L196.301 74.0578L199.696 71.9422L183.605 46.124L180.21 48.2397ZM197.999 71H182.908V75H197.999V71ZM184.623 71.9723L174.169 54.5178L170.737 56.5731L181.192 74.0277L184.623 71.9723ZM170.866 54.3286L166.684 59.7831L169.859 62.2169L174.04 56.7623L170.866 54.3286ZM166.271 61V73H170.271V61H166.271ZM168.271 71H155.635V75H168.271V71ZM220.265 73H218.265V75H220.265V73ZM220.265 26.4545V24.4545H218.265V26.4545H220.265ZM232.901 26.4545H234.901V24.4545H232.901V26.4545ZM232.901 44.6364H230.901V46.6364H232.901V44.6364ZM249.629 44.6364V46.6364H251.629V44.6364H249.629ZM249.629 26.4545V24.4545H247.629V26.4545H249.629ZM262.265 26.4545H264.265V24.4545H262.265V26.4545ZM262.265 73V75H264.265V73H262.265ZM249.629 73H247.629V75H249.629V73ZM249.629 54.8182H251.629V52.8182H249.629V54.8182ZM232.901 54.8182V52.8182H230.901V54.8182H232.901ZM232.901 73V75H234.901V73H232.901ZM222.265 73V26.4545H218.265V73H222.265ZM220.265 28.4545H232.901V24.4545H220.265V28.4545ZM230.901 26.4545V44.6364H234.901V26.4545H230.901ZM232.901 46.6364H249.629V42.6364H232.901V46.6364ZM251.629 44.6364V26.4545H247.629V44.6364H251.629ZM249.629 28.4545H262.265V24.4545H249.629V28.4545ZM260.265 26.4545V73H264.265V26.4545H260.265ZM262.265 71H249.629V75H262.265V71ZM251.629 73V54.8182H247.629V73H251.629ZM249.629 52.8182H232.901V56.8182H249.629V52.8182ZM230.901 54.8182V73H234.901V54.8182H230.901ZM232.901 71H220.265V75H232.901V71ZM299.781 26.4545H301.781V24.4545H299.781V26.4545ZM299.781 73V75H301.781V73H299.781ZM287.145 73H285.145V75H287.145V73ZM287.145 26.4545V24.4545H285.145V26.4545H287.145ZM297.781 26.4545V73H301.781V26.4545H297.781ZM299.781 71H287.145V75H299.781V71ZM289.145 73V26.4545H285.145V73H289.145ZM287.145 28.4545H299.781V24.4545H287.145V28.4545ZM324.65 73H322.65V75H324.65V73ZM324.65 26.4545V24.4545H322.65V26.4545H324.65ZM337.286 26.4545H339.286V24.4545H337.286V26.4545ZM337.286 62.8182H335.286V64.8182H337.286V62.8182ZM356.105 62.8182H358.105V60.8182H356.105V62.8182ZM356.105 73V75H358.105V73H356.105ZM326.65 73V26.4545H322.65V73H326.65ZM324.65 28.4545H337.286V24.4545H324.65V28.4545ZM335.286 26.4545V62.8182H339.286V26.4545H335.286ZM337.286 64.8182H356.105V60.8182H337.286V64.8182ZM354.105 62.8182V73H358.105V62.8182H354.105ZM356.105 71H324.65V75H356.105V71Z" fill="white"/>
<path d="M87.3289 157.517L87.3298 157.515C89.4498 153.769 90.4823 149.218 90.4823 143.909C90.4823 138.6 89.4499 134.056 87.3289 130.324C85.2258 126.609 82.3717 123.78 78.7709 121.868C75.1898 119.951 71.2079 119 66.8459 119C62.4546 119 58.457 119.95 54.8746 121.868C51.2883 123.781 48.442 126.61 46.3393 130.326L46.3386 130.327C44.2339 134.058 43.2095 138.601 43.2095 143.909C43.2095 149.188 44.2344 153.723 46.3377 157.467L46.3402 157.471C48.4427 161.171 51.2872 164.005 54.8692 165.947L54.8739 165.95C58.4564 167.868 62.4543 168.818 66.8459 168.818C71.2071 168.818 75.1885 167.876 78.7694 165.974L78.7725 165.973C82.3716 164.046 85.2254 161.218 87.3289 157.517ZM113.889 119.636H112.889V120.636V167.182V168.182H113.889H126.253H127.253V167.182V144.498L136.047 167.18L136.295 167.818H136.98H144.434H145.117L145.366 167.182L154.162 144.652V167.182V168.182H155.162H167.525H168.525V167.182V120.636V119.636H167.525H151.798H151.127L150.873 120.257L140.707 145.03L130.541 120.257L130.287 119.636H129.616H113.889ZM191.074 167.182V168.182H192.074H204.71H205.71V167.182V155.521L208.79 151.504L218.489 167.696L218.78 168.182H219.347H234.438H236.239L235.286 166.653L219.56 141.419L234.87 121.241L236.088 119.636H234.074H219.347H218.844L218.544 120.039L205.71 137.29V120.636V119.636H204.71H192.074H191.074V120.636V167.182ZM268.475 168.182H269.217L269.432 167.471L271.907 159.273H285.77L288.245 167.471L288.459 168.182H289.202H302.838H304.222L303.788 166.868L288.424 120.323L288.198 119.636H287.475H270.202H269.479L269.252 120.323L253.889 166.868L253.455 168.182H254.838H268.475ZM278.838 136.312L282.312 147.818H275.365L278.838 136.312ZM324.881 167.182V168.182H325.881H338.518H339.518V167.182V152.818H342.29L350.18 167.651L350.462 168.182H351.063H364.79H366.474L365.669 166.703L356.704 150.245C358.838 149.049 360.563 147.444 361.858 145.429C363.468 142.947 364.245 139.937 364.245 136.455C364.245 133.004 363.492 129.983 361.94 127.434C360.397 124.9 358.233 122.961 355.477 121.623C352.726 120.288 349.548 119.636 345.972 119.636H325.881H324.881V120.636V167.182ZM342.972 141H339.518V131.727H342.972C344.37 131.727 345.505 131.921 346.403 132.272L346.411 132.275L346.42 132.278C347.305 132.607 347.935 133.104 348.365 133.756L348.371 133.764L348.377 133.773C348.806 134.394 349.063 135.261 349.063 136.455C349.063 137.631 348.806 138.48 348.382 139.084L348.375 139.094C347.95 139.714 347.323 140.193 346.435 140.511C345.525 140.827 344.379 141 342.972 141Z" stroke="#404040" stroke-width="3"/>
<path d="M406 3H3V200H406V3Z" stroke="#404040" stroke-width="6"/>
<path d="M67 154C72.5228 154 77 149.523 77 144C77 138.477 72.5228 134 67 134C61.4772 134 57 138.477 57 144C57 149.523 61.4772 154 67 154Z" fill="white" stroke="#404040" stroke-width="3"/>
</svg>
