<?xml version="1.0" standalone="no"?>
<!DOCTYPE svg PUBLIC "-//W3C//DTD SVG 20010904//EN"
 "http://www.w3.org/TR/2001/REC-SVG-20010904/DTD/svg10.dtd">
<svg version="1.0" xmlns="http://www.w3.org/2000/svg"
 width="2354.000000pt" height="2259.000000pt" viewBox="0 0 2354.000000 2259.000000"
 preserveAspectRatio="xMidYMid meet">

<g transform="translate(0.000000,2259.000000) scale(0.100000,-0.100000)"
fill="#000000" stroke="none">
<path d="M11440 22559 c-2789 -135 -5198 -1141 -7509 -3135 -229 -198 -235
-203 -191 -139 19 27 140 156 267 286 128 130 233 242 233 248 0 16 -61 -16
-139 -74 -93 -68 -228 -201 -436 -430 -204 -224 -356 -375 -428 -424 -66 -45
-172 -93 -197 -89 -18 3 -14 13 43 114 205 361 481 677 877 1004 73 60 121
125 135 183 9 36 -8 36 -84 -3 -47 -23 -61 -35 -66 -59 -9 -42 -36 -73 -119
-138 -81 -65 -95 -81 -116 -134 -11 -27 -75 -95 -217 -231 -841 -803 -1488
-1649 -1920 -2511 -143 -287 -175 -359 -152 -347 11 6 35 32 54 58 34 46 52
81 173 332 90 186 153 249 222 220 17 -7 33 -16 35 -20 3 -4 -28 -66 -69 -137
-626 -1104 -1152 -2471 -1455 -3783 -186 -806 -288 -1508 -343 -2355 -16 -251
-16 -1087 0 -1325 28 -406 82 -913 102 -950 12 -22 49 -36 125 -50 70 -12 107
-36 118 -76 331 -1238 571 -1929 1019 -2939 342 -771 681 -1319 1021 -1654 52
-50 64 -58 60 -39 -10 50 82 84 160 59 69 -23 174 -143 357 -411 239 -350 295
-413 508 -579 233 -180 287 -250 287 -371 0 -105 1 -104 -113 -97 -170 9 -321
81 -472 223 -40 38 -141 155 -225 259 -224 280 -307 351 -422 362 l-58 6 25
-29 c305 -347 808 -851 1165 -1167 505 -447 962 -783 1465 -1078 337 -197 910
-515 1065 -590 240 -117 443 -180 620 -194 l80 -6 -225 91 c-124 50 -283 119
-355 153 -210 103 -475 291 -596 425 -49 54 -107 157 -96 169 3 2 180 -82 394
-189 634 -317 1074 -498 1586 -652 730 -220 1507 -336 2262 -336 l181 0 85
102 c186 222 423 541 599 805 l75 112 214 1 213 0 -6 26 c-4 15 -37 93 -73
173 -62 136 -67 152 -71 231 -3 74 0 94 22 154 15 38 31 75 37 82 7 9 -42 43
-203 140 -508 305 -752 487 -950 711 -103 115 -205 263 -183 263 9 0 82 -18
163 -40 156 -43 243 -60 307 -60 108 0 178 51 190 138 11 80 -24 143 -144 262
-196 194 -443 330 -841 464 -53 18 -53 61 0 161 29 54 38 81 31 88 -6 6 -48
13 -94 16 -80 6 -85 8 -167 63 -47 31 -155 116 -240 189 -285 244 -355 287
-684 425 -126 52 -257 109 -290 126 -179 90 -294 197 -494 463 -76 102 -186
232 -252 300 -132 135 -172 200 -172 275 0 53 26 114 45 104 122 -71 334 -227
662 -484 138 -108 286 -223 330 -256 558 -420 960 -596 1395 -611 l145 -5
-170 85 c-260 131 -472 273 -730 488 -132 110 -419 393 -558 549 -62 69 -162
178 -224 243 -124 131 -183 227 -183 298 l0 39 38 -15 c67 -29 175 -102 300
-204 313 -258 422 -320 573 -329 73 -4 190 18 188 36 0 4 -53 33 -117 64 -204
100 -395 239 -666 486 l-139 127 167 3 167 2 -7 23 c-15 49 -92 186 -148 262
-82 111 -239 264 -451 440 -217 180 -342 304 -496 493 -362 443 -628 916 -788
1400 -259 783 -325 1647 -196 2549 106 737 373 1545 730 2213 531 991 1180
1653 2123 2164 529 287 1228 539 1932 698 l190 42 -23 24 c-32 34 -153 90
-221 103 -129 23 -253 -12 -496 -139 -354 -185 -414 -207 -543 -200 -51 3 -96
12 -119 23 l-38 19 -56 -62 c-142 -157 -298 -230 -739 -346 -317 -83 -464
-141 -607 -237 -88 -60 -105 -89 -133 -226 -15 -69 -38 -144 -55 -180 -36 -73
-133 -179 -296 -323 -252 -225 -803 -947 -1116 -1465 -409 -678 -652 -1320
-732 -1940 -27 -205 -37 -479 -26 -720 12 -254 33 -466 95 -964 68 -554 95
-870 95 -1140 l0 -125 -31 30 c-36 34 -126 167 -162 240 -43 85 -96 252 -123
381 -43 212 -54 370 -64 873 -15 774 -25 855 -135 1095 -83 182 -92 229 -77
418 27 332 100 631 248 1004 340 861 1067 1889 1808 2556 291 262 944 723
1506 1064 554 335 970 527 1340 617 695 169 1474 164 2515 -15 177 -31 184
-31 400 -25 179 6 237 4 310 -9 379 -67 726 -213 1295 -545 368 -214 539 -309
707 -394 126 -63 151 -79 146 -93 -11 -31 -25 -44 -77 -70 -60 -30 -86 -51
-86 -70 0 -7 8 -13 19 -13 10 0 56 -19 102 -41 78 -39 99 -56 299 -258 119
-120 238 -232 264 -251 77 -53 163 -72 221 -50 l26 10 -58 48 c-76 64 -89 80
-75 94 7 7 57 -1 175 -32 154 -39 208 -46 207 -27 0 4 -46 46 -102 93 -364
304 -654 617 -846 912 -66 103 -68 104 -182 176 -280 177 -693 394 -1010 531
-723 312 -1416 494 -2180 572 -245 25 -892 25 -1130 0 -872 -91 -1650 -310
-2818 -792 -152 -63 -277 -113 -279 -111 -11 11 267 220 448 339 540 352 1164
598 1879 741 871 175 1904 179 2760 11 1101 -216 2213 -749 3175 -1520 449
-360 967 -883 1308 -1321 700 -897 1148 -1874 1317 -2869 97 -572 116 -1327
49 -1975 -170 -1668 -887 -3189 -2019 -4284 -133 -128 -135 -130 -274 -196
-170 -82 -217 -114 -245 -172 -21 -44 -30 -158 -13 -158 12 0 229 159 364 266
190 152 351 296 533 478 1024 1026 1657 2388 1985 4270 87 501 92 543 100 936
8 397 15 462 70 592 29 71 79 162 85 156 2 -2 11 -60 19 -128 9 -69 34 -226
56 -350 97 -535 115 -765 91 -1115 -26 -369 -72 -661 -210 -1344 -133 -655
-168 -853 -190 -1101 -16 -175 -22 -340 -14 -340 5 0 21 51 37 113 104 411
269 764 430 916 l36 35 0 -30 c0 -56 -41 -280 -77 -419 -108 -422 -268 -783
-649 -1465 -223 -399 -262 -479 -350 -715 -91 -246 -141 -346 -230 -465 -197
-262 -465 -489 -1074 -910 -352 -243 -406 -284 -675 -510 -352 -294 -465 -361
-810 -480 -246 -85 -328 -128 -360 -190 -16 -32 -20 -70 -6 -70 17 0 150 60
356 160 116 56 248 117 296 136 108 42 210 61 241 47 21 -10 4 -20 -167 -103
-839 -407 -1727 -726 -2500 -900 -160 -35 -203 -41 -390 -50 -340 -17 -469
-39 -586 -102 -67 -35 -153 -113 -143 -130 5 -7 39 -9 113 -4 303 19 296 19
327 3 65 -33 76 -73 34 -121 -33 -37 -80 -56 -185 -76 -131 -25 -192 -59 -209
-116 -6 -19 -2 -22 41 -27 234 -29 1132 -34 1438 -7 1050 90 1937 327 2815
751 1150 557 2192 1397 3313 2673 178 202 209 234 203 205 -9 -45 -63 -154
-131 -263 -80 -130 -94 -194 -43 -204 25 -5 384 533 642 962 427 709 795 1467
1060 2181 96 259 97 262 90 145 -17 -292 -60 -461 -234 -905 -176 -453 -208
-571 -217 -800 -4 -113 -2 -170 10 -232 l16 -82 -76 -133 c-41 -73 -134 -245
-205 -383 -267 -510 -364 -677 -559 -951 -118 -165 -337 -443 -474 -599 -313
-359 -775 -813 -1115 -1096 -225 -188 -328 -288 -388 -378 -41 -62 -77 -156
-70 -186 2 -10 42 15 129 78 2112 1548 3539 3807 3988 6312 244 1362 210 2657
-115 4429 -57 312 -125 541 -303 1033 -65 181 -142 400 -171 488 -49 151 -52
164 -46 230 21 229 20 271 -9 360 -17 52 -53 127 -96 197 -119 193 -153 271
-158 356 -2 43 1 78 7 84 15 15 344 -653 638 -1292 245 -533 283 -613 284
-593 0 20 -146 452 -218 643 -508 1343 -1287 2591 -2317 3710 -183 199 -618
628 -805 794 -791 704 -1615 1267 -2500 1710 -330 165 -495 239 -854 383
-1272 511 -2441 791 -3641 873 -437 30 -1214 39 -1625 19z"/>
<path d="M6970 21981 c-399 -136 -545 -194 -745 -291 -257 -126 -450 -266
-586 -425 -37 -43 -66 -81 -64 -83 4 -4 270 135 782 410 183 98 464 246 625
329 256 133 326 171 308 168 -3 0 -147 -49 -320 -108z"/>
<path d="M11905 16667 c-59 -16 -84 -28 -108 -55 -18 -20 -18 -20 60 -15 43 3
173 -2 288 -11 136 -10 235 -12 280 -7 74 9 151 37 173 63 11 14 -8 16 -170
22 -454 16 -473 16 -523 3z"/>
<path d="M13390 16617 c-57 -16 -106 -46 -145 -87 -30 -32 -30 -32 -5 -25 14
5 70 8 125 8 169 -1 249 -31 620 -226 172 -90 277 -107 381 -61 l39 17 -30 10
c-31 11 -255 124 -475 240 -217 114 -394 157 -510 124z"/>
</g>
</svg>
