<svg width="65" height="65" viewBox="0 0 65 65" fill="none" xmlns="http://www.w3.org/2000/svg">
<path d="M63.8083 24.4469C62.6912 19.9638 60.573 16.5833 56.0608 16.5833H50.2429V23.4603C50.2429 28.7994 45.7163 33.297 40.5513 33.297H25.0562C20.8198 33.297 17.3087 36.9241 17.3087 41.1751V55.9447C17.3087 60.1522 20.9648 62.6186 25.0562 63.8228C29.9601 65.2591 34.6753 65.5203 40.5513 63.8228C44.454 62.6911 48.2988 60.4133 48.2988 55.9447V50.0398H32.8183V48.0666H56.0608C60.573 48.0666 62.2414 44.9183 63.8083 40.2031C65.4333 35.3427 65.3607 30.671 63.8083 24.4469V24.4469ZM41.5233 53.9716C43.1338 53.9716 44.4395 55.2918 44.4395 56.9168C44.4395 58.5562 43.1338 59.8765 41.5233 59.8765C39.9274 59.8765 38.6071 58.5417 38.6071 56.9168C38.6216 55.2773 39.9274 53.9716 41.5233 53.9716ZM24.3453 31.3529H39.8404C44.1494 31.3529 47.5879 27.7983 47.5879 23.4748V8.69074C47.5879 4.48329 44.0478 1.33496 39.8404 0.62405C34.6463 -0.231948 29.0025 -0.188422 24.3453 0.638559C17.7875 1.79923 16.5978 4.22214 16.5978 8.70525V14.6102H32.1073V16.5833H10.7799C6.26777 16.5833 2.32146 19.2964 1.08824 24.4469C-0.333586 30.3518 -0.39162 34.037 1.08824 40.2031C2.19089 44.7877 4.81692 48.0666 9.32905 48.0666H14.6537V40.9865C14.6537 35.865 19.0787 31.3529 24.3453 31.3529ZM23.3732 10.6639C21.7628 10.6639 20.457 9.34362 20.457 7.71867C20.4716 6.07922 21.7628 4.75895 23.3732 4.75895C24.9692 4.75895 26.2894 6.09373 26.2894 7.71867C26.2894 9.34362 24.9837 10.6639 23.3732 10.6639V10.6639Z" fill="black"/>
</svg>
